<?xml version="1.0" encoding="utf-8"?>
<!-- Generator: Adobe Illustrator 22.1.0, SVG Export Plug-In . SVG Version: 6.00 Build 0)  -->
<svg version="1.1" id="Layer_3" xmlns="http://www.w3.org/2000/svg" xmlns:xlink="http://www.w3.org/1999/xlink" x="0px" y="0px"
	 viewBox="0 0 1506 1080" style="enable-background:new 0 0 1506 1080;" xml:space="preserve">
<style type="text/css">
	.st0{fill:#42A5E8;}
	.st1{fill:#3FA9F5;}
	.st2{fill:#42E58C;}
</style>
<g id="Layer_1">
	<g>
		<path class="st0" d="M241.4,437.5c0-111.4-0.2-222.8,0.4-334.3c0.1-11.6,2.7-24.4,8.3-34.4c8.6-15.4,28.5-20.8,45.5-15.7
			c17.6,5.3,28.7,19.4,29.7,38c0.2,4.2,0.1,8.4,0.1,12.6c0,111,0,221.9,0,332.9c0,5.5,0,113.5,0,118.5c0,82.1-0.4,164.1,0.2,246.2
			c0.3,34.4,0.9,69,4.5,103.2c3.6,33.5,23.7,47.4,57.3,44.4c14.5-1.3,25.4-8.7,28.7-22.7c4.9-20.7,9.6-41.8,11-63
			c2.1-32,1.2-64.3,2-96.4c0.5-19.5,12-34.4,29.5-39.8c16.5-5,34.7,0.1,44.9,14.4c4.4,6.1,8.4,14.3,8.5,21.5
			c0.9,56.3,3.6,112.9-9.3,168.4c-11.8,50.4-38.8,87.8-92.4,98.9c-84.8,17.5-154.5-32.2-164.2-118.4c-4.2-37.4-4.1-75.3-4.4-113
			c-0.6-81.1-0.2-162.2-0.2-243.4C241.4,550.2,241.4,442.9,241.4,437.5z"/>
		<path class="st1" d="M799.6,667.2c0-14.4-0.3-25.1,0.1-35.8c0.8-23.8,18.8-41.4,42.1-41.4c23.3,0,41.6,17.8,41.7,41.7
			c0.2,119.8,0.2,239.6,0,359.4c0,19.9-12.1,35.1-30.5,40.2c-19,5.3-37.3-2.2-47.9-19.6c-1.6-2.7-3-5.5-5.1-9.4
			c-22.4,19.4-47.9,29.9-76.7,30.5c-55,1.2-94.2-24.5-119.5-72.4c-22-41.6-26.4-86.9-25.5-133c0.8-42.4,7.7-83.6,28.8-121.1
			c25.7-45.7,62.5-75,117.8-73C752.8,634.5,776.6,646.5,799.6,667.2z M773.1,834.2c-0.1-30.1-3.6-59.6-18.1-86.5
			c-8.1-15-17.5-30.1-37-30.1c-19.3,0-30.4,14.4-37.3,29.7c-25.5,56.7-25.9,114.6-3.2,172.2c6.8,17.3,19.9,29.4,40.3,29.4
			c20.8,0,33.8-12.6,39.2-30.3C765.4,891.3,774.3,834.5,773.1,834.2z"/>
		<path class="st1" d="M1225.4,542.3c0,147.3-0.1,294.6,0.1,441.8c0,14.6-2.3,28.1-13.7,38c-13.1,11.3-28.3,14.2-44.3,7.6
			c-15.6-6.4-23.8-18.8-25.8-35.4c-0.5-3.7-0.1-7.4-0.1-11.2c0-294.1,0-588.2-0.1-882.3c0-14.1,2-27.2,12.5-37.2
			c12.4-11.9,27.3-15.8,43.8-9.7c17,6.2,26.2,18.7,27.6,36.7c0.4,4.6,0.2,9.3,0.2,14C1225.4,250.5,1225.4,396.4,1225.4,542.3z"/>
		<path class="st1" d="M960.5,542.2c0-147.7,0-295.5,0-443.2c0-24.6,9.5-39.2,29.1-45.6c24.1-7.8,49.5,7.2,53.8,32.2
			c0.9,5.5,1.1,11.1,1.1,16.7c0,293.1,0,586.3,0.1,879.4c0,13.8-1.1,27.3-11.3,37.7c-12.1,12.4-26.7,16.7-43.4,11.4
			c-16.6-5.3-26.4-16.9-28.8-34.3c-0.7-5-0.5-10.2-0.5-15.3C960.5,834.9,960.5,688.6,960.5,542.2z"/>
		<path class="st1" d="M1401.6,810.9c0,59.6,0.3,119.2-0.1,178.9c-0.2,30.7-27.2,50.3-55.3,41c-16.7-5.6-28.4-20.5-28.4-39.1
			c-0.2-120.2-0.3-240.3,0-360.5c0.1-23.9,19.1-41.4,42.3-41.1c23.2,0.3,41.2,17.9,41.4,42C1401.9,691.6,1401.6,751.3,1401.6,810.9z
			"/>
		<path class="st2" d="M1358.6,538.2c-24.2-0.3-42.7-18.5-42.6-42.1c0.1-24.1,19-42,44.3-41.9c25.1,0.1,43.7,18.5,43.2,42.8
			C1403,521.2,1384.2,538.5,1358.6,538.2z"/>
	</g>
	<g id="Layer_2">
		<path class="st2" d="M87,454c-2.9-0.4-20.5-2.6-36,10c-14.9,12.1-16.7,29-17,32c-0.2,3-0.7,18.6,11,31c10.4,11,26.6,15.3,42,11.2
			c250.7,0.1,501.3,0.3,752,0.4c2.5,0.2,19.9,1,33-12.6c11.6-12.1,11.6-26.9,11.6-29.8c-0.1-2.8-0.9-19.1-14.6-31.2
			c-12.9-11.5-27.9-11.1-31-11C587.7,454,337.3,454,87,454z"/>
	</g>
</g>
</svg>
