<svg id="Layer_1" data-name="Layer 1" xmlns="http://www.w3.org/2000/svg" viewBox="0 0 1907.08 1076.29"><defs><style>.cls-1{fill:#fdfdfd;}.cls-2{fill:#23b573;}.cls-3{fill:#57c0e5;}</style></defs><title>logo</title><path class="cls-1" d="M1913.72,385.46v688.47H457.35c.7-2.6,2.71-2.84,5-3.08,50.67-5.34,92.13-28.11,124.1-67.44,46.14-56.77,58.43-124.29,59.45-194.87.6-41.39-27.54-70.71-66.27-70.6s-65.68,29.25-66,71c-.27,30.47-4.42,60.29-16.42,88.63C486.41,922.94,468.33,939,440,940.76c-32,2-56.88-9.83-71.55-39.51-12.73-25.74-16.9-53.44-17-81.71q-.31-191.79,0-383.58c6.62-.11,13.24-.31,19.85-.31q337.6,0,675.21-.1c9.87,0,20.06,0,29.55-2.29,32.8-7.88,53.56-38.81,49.54-72.21s-32.12-57.77-67.57-57.78q-343.41-.12-686.8-.07c-6.61,0-13.21-.39-19.82-.6q.29-112.44.53-224.88c.08-45.83-12.08-63.79-53.5-79.52H1314.62c-38.94,14.09-52,42.29-51.83,82.85.92,303.75.5,607.5.51,911.25,0,6.06-.24,12.17.35,18.18,4,40.64,42.29,67.37,81.92,57.36,33-8.32,50.16-33.48,50.17-73.63,0-304.3-.37-608.61.46-912.91.11-40.38-13-68.82-51.79-83.1h231.7c-39.2,13.54-53,41.44-52.89,82.19.9,264.75.46,529.5.46,794.25,0,43-.35,86.05.11,129.07.43,40.42,35.48,71.27,74.23,66.16,35.86-4.73,58.06-32.17,58.06-72.23q.06-460,0-920c0-46.16-11.72-63.55-53.52-79.42,99.85,0,199.7.18,299.54-.28,9.88,0,11.91,2,11.87,11.86-.44,115.3-.28,230.6-.28,345.89-3.34-1.13-2.67-4.29-3.51-6.76-12.49-36.73-50.19-55.13-88-43-34.72,11.15-53.64,48.32-42.47,83.39,11.3,35.47,49.23,53.8,86.62,43C1891.12,425.19,1902.67,405.84,1913.72,385.46ZM1139.2,791.51q0-103.39,0-206.78c0-35.59-18.64-62.14-48.93-69.87-31.27-8-60.25,5.23-77,36.3-3.92,7.28-6.72,7.06-13.61,4.51-95.61-35.37-191.81-2.49-244.1,85.36-49.89,83.82-55.06,174.62-30.66,266.63,36.19,136.46,159.14,196.27,289.5,143.36,7-2.83,10.44-1.18,15.56,3,22.06,18.23,47,21.59,72.41,9.07,24.79-12.23,36.91-33.46,36.85-61.54C1139.09,931.57,1139.2,861.54,1139.2,791.51Zm771.76.69c0-71.13.38-142.26-.15-213.39-.28-38-29.06-65.89-66.09-65.94-36.68,0-66,28.69-66.07,66.12q-.37,212.55-.08,425.11a63.19,63.19,0,0,0,15.65,42.42c18.66,21.67,47.07,29.21,73.39,19.68,26.11-9.44,43.07-32.94,43.23-62.28C1911.21,933.35,1911,862.77,1911,792.2Z" transform="translate(-6.92 2.09)"/><path class="cls-1" d="M397.77,1073.93c-126.33,0-252.66-.14-379,.28-9.87,0-11.87-2-11.86-11.87q.54-340.09.28-680.19c1,1.21,2.44,2.26,3,3.66,13.43,36.71,31.82,49.78,70.1,49.84q69.36.11,138.73.31,0,191.71,0,383.42a337.15,337.15,0,0,0,10,83.36c21.83,86.14,70.9,146.32,161,166.77C392.88,1070.17,396.89,1069.45,397.77,1073.93Z" transform="translate(-6.92 2.09)"/><path class="cls-2" d="M219,436q-69.37-.16-138.73-.31c-38.28-.06-56.67-13.13-70.1-49.84-.51-1.4-2-2.45-2.95-3.66V355.67c17.18-45,52.5-55,96.43-52.88,38.37,1.88,76.92,0,115.39-.19H351.44c6.61.21,13.21.6,19.82.6q343.4,0,686.8.07c35.45,0,63.54,24.27,67.57,57.78s-16.74,64.33-49.54,72.21c-9.49,2.28-19.68,2.28-29.55,2.29q-337.6.17-675.21.1c-6.61,0-13.23.2-19.85.3Z" transform="translate(-6.92 2.09)"/><path class="cls-3" d="M1344.41-1.8c38.84,14.28,51.9,42.72,51.79,83.1-.83,304.3-.45,608.61-.46,912.91,0,40.15-17.2,65.31-50.17,73.63-39.63,10-77.91-16.72-81.92-57.36-.59-6-.35-12.12-.35-18.18,0-303.75.41-607.5-.51-911.25-.13-40.56,12.89-68.76,51.83-82.85Z" transform="translate(-6.92 2.09)"/><path class="cls-3" d="M1602.59-1.8c41.8,15.87,53.52,33.26,53.52,79.42q0,460,0,920c0,40.06-22.2,67.5-58.06,72.23-38.75,5.11-73.8-25.74-74.23-66.16-.46-43-.11-86.05-.11-129.07,0-264.75.44-529.5-.46-794.25-.13-40.75,13.69-68.65,52.89-82.19Z" transform="translate(-6.92 2.09)"/><path class="cls-3" d="M219,436h132.5q0,191.81,0,383.59c.05,28.27,4.22,56,17,81.71C383.15,930.93,408,942.78,440,940.76c28.3-1.78,46.38-17.82,57.12-43.19,12-28.34,16.15-58.16,16.42-88.63.37-41.75,27.32-70.88,66-71s66.87,29.21,66.27,70.6c-1,70.58-13.31,138.1-59.45,194.87-32,39.33-73.43,62.1-124.1,67.44-2.28.24-4.29.48-5,3.08H397.77c-.88-4.48-4.89-3.76-7.81-4.42-90.09-20.45-139.16-80.63-161-166.77a337.15,337.15,0,0,1-10-83.36Q219.14,627.68,219,436Z" transform="translate(-6.92 2.09)"/><path class="cls-1" d="M219,302.6c-38.47.21-77,2.07-115.39.19C59.7,300.64,24.38,310.7,7.2,355.67c0-115.29.15-230.59-.28-345.89,0-9.87,2-11.92,11.86-11.86,84.4.49,168.81.28,253.21.28-39.13,13.34-53.72,41-52.9,81.71C220.58,154.11,219.2,228.37,219,302.6Z" transform="translate(-6.92 2.09)"/><path class="cls-3" d="M219,302.6c.18-74.23,1.56-148.49.07-222.69C218.27,39.18,232.86,11.54,272-1.8h26.48c41.42,15.73,53.58,33.69,53.5,79.52q-.18,112.44-.53,224.88Z" transform="translate(-6.92 2.09)"/><path class="cls-2" d="M1913.72,385.46c-11,20.38-22.6,39.73-47.35,46.87-37.39,10.79-75.32-7.54-86.62-43-11.17-35.07,7.75-72.24,42.47-83.39,37.8-12.15,75.5,6.25,88,43,.84,2.47.17,5.63,3.51,6.76Z" transform="translate(-6.92 2.09)"/><path class="cls-3" d="M1139.2,791.51c0,70-.11,140.06,0,210.09.06,28.08-12.06,49.31-36.85,61.54-25.4,12.52-50.35,9.16-72.41-9.07-5.12-4.23-8.6-5.88-15.56-3-130.36,52.91-253.31-6.9-289.5-143.36-24.4-92-19.23-182.81,30.66-266.63,52.29-87.85,148.49-120.73,244.1-85.36,6.89,2.55,9.69,2.77,13.61-4.51,16.71-31.07,45.69-44.29,77-36.3,30.29,7.73,48.92,34.28,48.93,69.87Q1139.22,688.13,1139.2,791.51Zm-132.29,17c.13-37.12-5.73-69.27-23.6-98.19-30.64-49.6-86.7-50.19-114.77.81-33.35,60.61-32.62,124.54-6.12,187.49,11.78,28,36.28,39.88,66.73,39,29.76-.81,49.38-16.08,60.9-42.62C1002.51,866.37,1006.16,835.93,1006.91,808.54Z" transform="translate(-6.92 2.09)"/><path class="cls-3" d="M1911,792.2c0,70.57.25,141.15-.12,211.72-.16,29.34-17.12,52.84-43.23,62.28-26.32,9.53-54.73,2-73.39-19.68a63.19,63.19,0,0,1-15.65-42.42q0-212.55.08-425.11c.07-37.43,29.39-66.16,66.07-66.12,37,0,65.81,28,66.09,65.94C1911.34,649.94,1911,721.07,1911,792.2Z" transform="translate(-6.92 2.09)"/><path class="cls-1" d="M1006.91,808.54c-.75,27.39-4.4,57.83-16.86,86.53-11.52,26.54-31.14,41.81-60.9,42.62-30.45.84-54.95-11.05-66.73-39-26.5-62.95-27.23-126.88,6.12-187.49,28.07-51,84.13-50.41,114.77-.81C1001.18,739.27,1007,771.42,1006.91,808.54Z" transform="translate(-6.92 2.09)"/></svg>